<svg xmlns="http://www.w3.org/2000/svg" viewBox="0 0 741.9991 462.7034"><path d="M703.2878,221.2437a66.4724,66.4724,0,0,1-10.1153-1.0552q-.9594-.1494-1.9218-.2954c-18.39-2.7647-35.5186-13.5371-46.9942-29.5557-11.26-15.7187-15.9121-34.76-12.7607-52.2422,3.24-17.9795,11.84-33.4556,24.8691-44.7558A71.4424,71.4424,0,0,1,703.2555,75.853c19.3848-.1577,35.8916-14.1318,38.3975-32.5053C744.1686,24.895,732.7536,7.396,714.51,1.7383A44.1207,44.1207,0,0,0,701.0505,0c-2.3516,0-4.7373.0981-7.044.1934-2.2871.0942-4.6513.1914-6.9619.1914q-.8013,0-1.6016-.0166l-.0072,0c-1.0037-.02-2.0065-.0463-3.01-.0721-2.1026-.0547-4.2764-.1113-6.4209-.1113L492.7975.1792Q325.6413.1762,158.485.1587h-.1167c-13.748,0-29.708.3354-45.1416,4.34-41.2207,10.6944-72.5273,34.17-93.05,69.7744l-.0044.0077c-14.49,23.2321-21.2312,48.2-20.0372,74.2137a129.0461,129.0461,0,0,0,20.0221,74.09q.0506.236.09.4788a4.482,4.482,0,0,0,.5586,1.7622c30.4722,47.4512,72.1343,71.6084,123.83,71.8,68.8443.2559,143.9453.375,236.3477.375q75.7163,0,151.4472-.0674,72.8614-.0483,145.7149-.0674c1.9873,0,4.001-.06,5.9482-.1181.91-.027,1.8211-.0539,2.7322-.0752h0q2.496.0308,4.9912.0752c3.4961.0566,7.11.1152,10.6689.1152h.2959c21.7432-.0205,38.87-16.3633,38.9912-37.208a37.9032,37.9032,0,0,0-10.8408-27.1572A38.6975,38.6975,0,0,0,703.2878,221.2437Z" style="fill:#fff"/><path d="M686.838,295.6712c-2.8977.0674-5.7955.1936-8.6933.1938-177.8354.01-355.6724.4207-533.5054-.24-53.95-.2-94.2586-26.5966-122.9922-71.34a7,7,0,0,1-.5434-2.0667q277.11.0033,554.2205.0063c1.7551,2.5805,3.5217,5.1532,5.2621,7.7433a146.8581,146.8581,0,0,0,66.95,54.9356C660.216,290.1722,673.5442,292.7875,686.838,295.6712Z" style="fill:#a8cb54"/><path d="M1.135,148.4891C-.0984,121.81,6.9526,97.3486,21.0426,74.7724c3.3813.0259,6.7623.0741,10.1434.0742q266.6456.0054,533.2911.0669c3.2112.0013,6.8131-1.3526,9.6184,1.5519-11.38,22.6559-18.6636,46.3307-18.0546,71.9688Z" style="fill:#a8cb54"/><path d="M1.135,148.4891l554.91-.0549c-.4588,26.3807,6.6364,50.8038,19.2785,73.79l-554.22-.0064A127.5064,127.5064,0,0,1,1.135,148.4891Z" style="fill:#b5dd64"/><path d="M574.0955,76.4654c-2.8053-2.9045-6.4072-1.5506-9.6184-1.5519Q297.8316,74.806,31.186,74.8466c-3.3811,0-6.7621-.0483-10.1434-.0742C41.9268,38.5417,73.125,15.9356,113.4777,5.4661c14.7622-3.83,29.8549-4.31,45.0071-4.3075q258.76.0393,517.52.0257c3.1387,0,6.2774.12,9.417.1836-.5915.3819-1.1531,1.0373-1.7806,1.1074-22.4623,2.5082-42.6933,10.8866-61.4761,23.0871C602.0078,38.6557,586.7862,56.3772,574.0955,76.4654Z" style="fill:#b5dd64"/><path d="M574.0955,76.4654c12.6907-20.0882,27.9123-37.81,48.07-50.903,18.7828-12.2,39.0138-20.5789,61.4761-23.0871.6275-.07,1.1891-.7255,1.7806-1.1074,9.6091.2065,19.3306-1.6088,28.7928,1.3257,17.7739,5.5121,28.8891,22.6062,26.447,40.5189-2.451,17.9768-18.4255,31.4863-37.4135,31.64-36.4737.2959-66.05,25.9663-72.7366,63.0653-6.6847,37.09,21.3093,77.059,60.5906,82.9635a83.3589,83.3589,0,0,0,12.1826,1.3622c21.3856.0723,37.6112,16.3371,37.4882,37.4047-.1184,20.2951-16.7772,36.1944-37.9916,36.2139-5.3138.0049-10.6277-.1232-15.9424-.1907-13.2947-2.8842-26.6229-5.5-39.3021-10.7684a146.8581,146.8581,0,0,1-66.95-54.9356c-1.74-2.59-3.507-5.1628-5.2621-7.7433-12.6426-22.9864-19.7378-47.41-19.279-73.79C555.4319,122.7961,562.7156,99.1213,574.0955,76.4654Z" style="fill:#dcf3a3"/><path d="M155.1056,195.3916c-5.4272,2.7026-16.2817,5.4048-30.1889,5.4048-32.2241,0-56.4776-20.2681-56.4776-57.5947,0-35.6377,24.2535-59.7906,59.7-59.7906,14.2466,0,23.2354,3.0406,27.1363,5.0669L151.7136,100.47a53.93,53.93,0,0,0-23.066-4.73c-26.7968,0-44.6049,17.0591-44.6049,46.9541,0,27.8687,16.1123,45.772,43.9267,45.772,8.9888,0,18.1475-1.8579,24.0835-4.729Z" style="stroke:#fff;stroke-miterlimit:10"/><path d="M179.5241,160.936c.3394,20.0992,13.229,28.375,28.1538,28.375,10.6851,0,17.13-1.8579,22.7266-4.2221l2.5439,10.6406c-5.2573,2.3647-14.2466,5.0669-27.3056,5.0669-25.2706,0-40.3653-16.5523-40.3653-41.2114s14.586-44.083,38.4995-44.083c26.7969,0,33.92,23.477,33.92,38.5092a55.85,55.85,0,0,1-.5088,6.9248Zm43.7573-10.6406c.1695-9.4585-3.9009-24.1528-20.6914-24.1528-15.0947,0-21.709,13.85-22.8965,24.1528Z" style="stroke:#fff;stroke-miterlimit:10"/><path d="M256.1789,79.189h14.9248V199.1074H256.1789Z" style="stroke:#fff;stroke-miterlimit:10"/><path d="M304.5124,160.936c.3393,20.0992,13.229,28.375,28.1538,28.375,10.685,0,17.13-1.8579,22.7266-4.2221l2.5439,10.6406c-5.2573,2.3647-14.2466,5.0669-27.3057,5.0669-25.27,0-40.3652-16.5523-40.3652-41.2114s14.5859-44.083,38.5-44.083c26.7969,0,33.92,23.477,33.92,38.5092a55.85,55.85,0,0,1-.5088,6.9248ZM348.27,150.2954c.1694-9.4585-3.9009-24.1528-20.6914-24.1528-15.0947,0-21.709,13.85-22.8965,24.1528Z" style="stroke:#fff;stroke-miterlimit:10"/><path d="M381.1677,142.8638c0-9.627-.17-17.9034-.6788-25.5039h13.06l.5088,16.0454h.6777c3.7315-10.9781,12.7207-17.9033,22.7266-17.9033a16.2,16.2,0,0,1,4.24.5068v14.0185a22.5327,22.5327,0,0,0-5.0879-.5063c-10.5156,0-17.9775,7.938-20.0127,19.0854a41.6048,41.6048,0,0,0-.6787,6.9248v43.5762H381.1677Z" style="stroke:#fff;stroke-miterlimit:10"/><path d="M446.29,117.36l17.9776,48.3056c1.8652,5.4048,3.9,11.8228,5.2578,16.7207h.3388c1.5264-4.8979,3.2227-11.1474,5.2579-17.0586L491.403,117.36h15.7734L484.7887,175.63c-10.6845,28.0371-17.9775,42.394-28.1533,51.1767-7.2929,6.418-14.5859,8.9517-18.3174,9.627l-3.7314-12.4986a39.527,39.527,0,0,0,13.06-7.2626,45.0938,45.0938,0,0,0,12.5508-16.5523,10.6468,10.6468,0,0,0,1.1865-3.5469,12.9064,12.9064,0,0,0-1.0176-3.8842l-30.3584-75.33Z" style="stroke:#fff;stroke-miterlimit:10"/><path d="M256.5334,423.9605a29.1881,29.1881,0,0,1-11.1467-3.0654,3.6488,3.6488,0,1,0-3.2292,6.4217,36.2906,36.2906,0,0,0,13.8647,3.9409h2.5726a36.4864,36.4864,0,1,0-34.79-25.4313l-3.8126-1.5322v-.001a3.649,3.649,0,0,0-2.7182,6.769l12.3693,4.98a3.87,3.87,0,0,0,1.35.2555,3.65,3.65,0,0,0,3.3933-2.28l4.98-12.3876a3.6485,3.6485,0,1,0-6.768-2.7182l-1.8244,4.6159a29.2033,29.2033,0,1,1,25.76,20.4321Z" style="stroke:#fff;stroke-miterlimit:10"/><path d="M321.8266,431.5862l-7.2973,1.0395a67.4965,67.4965,0,1,0-19.4663,18.94,3.6487,3.6487,0,1,0-3.9592-6.13,60.2007,60.2007,0,1,1,17.3125-16.9106l-1.1127-7.8634a3.6843,3.6843,0,0,0-7.2974,1.0221l2.3171,16.4191a3.6487,3.6487,0,0,0,3.6487,3.1376h.511l16.2919-2.2988h-.001a3.6829,3.6829,0,1,0-1.0029-7.2973Z" style="stroke:#fff;stroke-miterlimit:10"/><path d="M66.009,416.1025,52.7609,456.2246H35.7282L79.0676,328.667H98.9391l43.5288,127.5576h-17.601l-13.626-40.1221Zm41.8252-12.8691L95.3434,366.5176c-2.8388-8.3272-4.7314-15.8975-6.624-23.2783H88.341c-1.8926,7.57-3.9746,15.33-6.4346,23.0888L69.4157,403.2334Z" style="stroke:#fff;stroke-miterlimit:10"/><path d="M177.6716,328.667V456.2246H161.2062V328.667Z" style="stroke:#fff;stroke-miterlimit:10"/><path d="M366.9225,330.1807a190.8966,190.8966,0,0,1,31.6055-2.46c16.2764,0,28.1992,3.7852,35.7695,10.5986,7.002,6.0557,11.1661,15.3291,11.1661,26.6846,0,11.5449-3.4073,20.6289-9.8418,27.2529-8.7051,9.2735-22.8995,14.0049-38.9864,14.0049a56.6716,56.6716,0,0,1-13.248-1.1357v51.0986H366.9225Zm16.4649,61.5078a55.2237,55.2237,0,0,0,13.6269,1.3252c19.8711,0,31.9834-9.6524,31.9834-27.253,0-16.8437-11.9228-24.9814-30.0908-24.9814-7.1924,0-12.6807.5674-15.5195,1.3242Z" style="stroke:#fff;stroke-miterlimit:10"/><path d="M545.2028,409.668c0,33.8769-23.4678,48.6386-45.61,48.6386-24.792,0-43.9073-18.1689-43.9073-47.125,0-30.6591,20.0616-48.6377,45.4219-48.6377C527.4128,362.5439,545.2028,381.6582,545.2028,409.668Zm-72.6738.9463c0,20.06,11.5449,35.2011,27.82,35.2011,15.8975,0,27.82-14.9511,27.82-35.58,0-15.5186-7.7588-35.2012-27.4414-35.2012S472.529,393.2031,472.529,410.6143Z" style="stroke:#fff;stroke-miterlimit:10"/><path d="M649.1052,409.668c0,33.8769-23.4678,48.6386-45.61,48.6386-24.792,0-43.9072-18.1689-43.9072-47.125,0-30.6591,20.0615-48.6377,45.4219-48.6377C631.3151,362.5439,649.1052,381.6582,649.1052,409.668Zm-72.6739.9463c0,20.06,11.5449,35.2011,27.82,35.2011,15.8975,0,27.82-14.9511,27.82-35.58,0-15.5186-7.7588-35.2012-27.4415-35.2012S576.4313,393.2031,576.4313,410.6143Z" style="stroke:#fff;stroke-miterlimit:10"/><path d="M670.1139,321.8535h16.6543V456.2246H670.1139Z" style="stroke:#fff;stroke-miterlimit:10"/></svg>
